<svg id="Layer_1" data-name="Layer 1" xmlns="http://www.w3.org/2000/svg" viewBox="0 0 600 600"><defs><style>.cls-1,.cls-3,.cls-4,.cls-5,.cls-6{fill:none;}.cls-1{stroke:#80a1c1;}.cls-1,.cls-10,.cls-2,.cls-3,.cls-4,.cls-5,.cls-6,.cls-7{stroke-miterlimit:10;}.cls-1,.cls-3,.cls-4,.cls-6{stroke-width:2.77px;}.cls-2{fill:#6d4c41;stroke:#6d4c41;stroke-width:6.92px;}.cls-3{stroke:#f58c73;}.cls-4{stroke:#d39a47;}.cls-5,.cls-7{stroke:#00c853;}.cls-5{stroke-width:4.15px;}.cls-6{stroke:#83cda1;}.cls-7{fill:#00c853;}.cls-10,.cls-7{stroke-width:1.38px;}.cls-10,.cls-8{fill:#f58c73;}.cls-9{fill:#fff;}.cls-10{stroke:#fff;}.cls-11{fill:#80a1c1;}.cls-12{fill:#d39a47;}.cls-13{fill:#83cda1;}</style></defs><title>Logo</title><polyline class="cls-1" points="264.7 388.33 264.7 350.96 72.29 350.96"/><path class="cls-2" d="M88.9,422.07V530.26h-11V422.07H43.88V412H123v10.06Z"/><path class="cls-2" d="M168,456.62a15.78,15.78,0,0,0-9.56-2.72,16.45,16.45,0,0,0-7.43,1.61,18.66,18.66,0,0,0-5.64,4.33,25.82,25.82,0,0,0-4.13,6.3,45,45,0,0,0-2.72,7.47,53.75,53.75,0,0,0-1.48,7.83,64.43,64.43,0,0,0-.46,7.51v41.31H126.09V445.82h10.47v18.06h.33a37.29,37.29,0,0,1,3.76-8.29,25.47,25.47,0,0,1,5.23-6.18,21.86,21.86,0,0,1,6.48-3.84,20.71,20.71,0,0,1,7.38-1.32,28.57,28.57,0,0,1,4.57.33,17.38,17.38,0,0,1,3.67,1Z"/><path class="cls-2" d="M188.51,424.46a7.33,7.33,0,0,1-5.27-2.14,7.22,7.22,0,0,1-2.23-5.44,7,7,0,0,1,2.23-5.32,7.42,7.42,0,0,1,5.27-2.11,8.15,8.15,0,0,1,3,.54,7.22,7.22,0,0,1,2.44,1.53,7.58,7.58,0,0,1,1.64,2.35,7,7,0,0,1,.62,3,7.76,7.76,0,0,1-.57,3,7.21,7.21,0,0,1-1.65,2.44,8.06,8.06,0,0,1-2.44,1.6A7.52,7.52,0,0,1,188.51,424.46Zm-5.19,105.8V445.82h10.55v84.44Z"/><path class="cls-2" d="M231.64,516.65V569.1H221.09V445.82h10.55V462H232a33.51,33.51,0,0,1,12.58-13.48,36.64,36.64,0,0,1,32.24-1.73,30,30,0,0,1,10.8,8.28,37.71,37.71,0,0,1,6.76,13,58.68,58.68,0,0,1,2.35,17.24,65,65,0,0,1-2.64,19.09,44.23,44.23,0,0,1-7.58,14.8,34.49,34.49,0,0,1-12,9.6,35.76,35.76,0,0,1-15.87,3.43q-17.82,0-26.64-15.59Zm0-21.52A30.13,30.13,0,0,0,233.58,506a28.13,28.13,0,0,0,5.4,8.91,25.16,25.16,0,0,0,8.37,6.06,26,26,0,0,0,10.84,2.23,24.34,24.34,0,0,0,11.46-2.68,25,25,0,0,0,8.7-7.63,36.7,36.7,0,0,0,5.53-12,58.81,58.81,0,0,0,1.94-15.67A46,46,0,0,0,284,471.84a30.35,30.35,0,0,0-5.15-10.19,22.35,22.35,0,0,0-8.08-6.43,24.71,24.71,0,0,0-10.6-2.23,28,28,0,0,0-11.87,2.43,26.9,26.9,0,0,0-9,6.64,29.54,29.54,0,0,0-5.69,9.86,36,36,0,0,0-2,12Z"/><path class="cls-2" d="M384.11,530.26,366.3,496.37a67.81,67.81,0,0,0-5.11-8.41,25.94,25.94,0,0,0-5.12-5.4,16.94,16.94,0,0,0-5.65-2.89,24.11,24.11,0,0,0-6.72-.87h-13v51.46h-11V412h34.05a42.32,42.32,0,0,1,12.91,2,34.33,34.33,0,0,1,11.09,5.85,28.7,28.7,0,0,1,7.79,9.73,30.1,30.1,0,0,1,2.93,13.61,33.7,33.7,0,0,1-1.9,11.54,29.4,29.4,0,0,1-5.4,9.36,32,32,0,0,1-8.49,6.93,40.49,40.49,0,0,1-11.26,4.25v.33a18.27,18.27,0,0,1,4.37,2.55,26.4,26.4,0,0,1,3.84,3.8,48.31,48.31,0,0,1,3.67,5.11q1.81,2.88,3.79,6.6L397,530.26ZM330.68,422.07v46.76H350.3a32.64,32.64,0,0,0,10.89-1.74,24.17,24.17,0,0,0,8.45-4.94,22.32,22.32,0,0,0,5.44-7.76A25.79,25.79,0,0,0,377,444.17q0-10.31-6.64-16.2t-19.17-5.9Z"/><path class="cls-2" d="M415.69,489.94a47.43,47.43,0,0,0,2.06,13.93,29.54,29.54,0,0,0,5.69,10.47,24.53,24.53,0,0,0,9,6.56,30.38,30.38,0,0,0,12,2.27q14.26,0,27-10v10.39q-12.12,8.65-29.35,8.66a38.76,38.76,0,0,1-15.42-3,31.89,31.89,0,0,1-11.79-8.62,39.3,39.3,0,0,1-7.51-13.89,61.64,61.64,0,0,1-2.64-18.8,52,52,0,0,1,2.89-17.57,43.41,43.41,0,0,1,8-14,37,37,0,0,1,12.12-9.23,35.15,35.15,0,0,1,15.34-3.34,34.7,34.7,0,0,1,14.43,2.84A28.32,28.32,0,0,1,468,454.81a36.88,36.88,0,0,1,6.48,12.86,60.44,60.44,0,0,1,2.22,17v5.28Zm50.14-9.24q-.25-13.2-6.27-20.45T442.82,453a25.72,25.72,0,0,0-9.93,1.9,23.56,23.56,0,0,0-8.05,5.48,29.91,29.91,0,0,0-5.73,8.74,43.82,43.82,0,0,0-3.17,11.59Z"/><path class="cls-2" d="M553.56,526.47q-9.39,5.68-22.75,5.85a39.14,39.14,0,0,1-16.33-3.13,35.87,35.87,0,0,1-12.37-9,39.66,39.66,0,0,1-7.83-13.52,51,51,0,0,1-2.73-17,54.49,54.49,0,0,1,2.89-17.85,42.68,42.68,0,0,1,8.41-14.6,39.74,39.74,0,0,1,13.53-9.85,43.83,43.83,0,0,1,18.3-3.63,44.73,44.73,0,0,1,19.13,4V459.1A35.51,35.51,0,0,0,533.86,453a30.12,30.12,0,0,0-13.36,2.85,28.67,28.67,0,0,0-9.86,7.75,34.77,34.77,0,0,0-6.1,11.46,45.27,45.27,0,0,0-2.1,13.9,46.8,46.8,0,0,0,1.77,12.94,32.06,32.06,0,0,0,5.45,10.93,26.47,26.47,0,0,0,9.27,7.54,29.18,29.18,0,0,0,13.2,2.81,35.14,35.14,0,0,0,21.43-7.09Z"/><polyline class="cls-3" points="72.29 222.22 219.02 222.22 219.02 288.67 273.01 288.67 273.01 385.56"/><polyline class="cls-4" points="536.01 202.84 396.2 202.84 396.2 241.6 292.39 241.6 292.39 388.33"/><line class="cls-5" x1="282.7" y1="152.32" x2="282.7" y2="387.64"/><polyline class="cls-6" points="302.08 385.56 302.08 339.88 565.08 339.88"/><path class="cls-7" d="M282.77,148.27c-.58-1.27-1.07-2.28-1.49-3.33-.34-.86-.83-1.05-1.73-.83-5.26,1.31-10.54,2.55-15.81,3.81-2.07.5-2.19.37-2.22-1.8a5.14,5.14,0,0,1,1.89-3.88c4.17-4,8.32-8,12.52-12a4.12,4.12,0,0,0,1.32-3.87,68.51,68.51,0,0,1-.56-8.22c0-10.81.09-21.63.14-32.44,0-1.83-.42-2.12-2.22-1.73a104.64,104.64,0,0,0-32.43,13.07c-5.11,3.11-10.32,6.07-15.49,9.1-1.07.62-1.4.46-1.41-.75,0-1.62,0-3.24.07-4.86a4.44,4.44,0,0,1,1.84-3.33c3.7-3.14,7.39-6.31,11.11-9.43a2.45,2.45,0,0,0,1-2.11c-.06-2.36,0-4.73,0-7.09,0-1.36.52-1.8,2-1.82,2,0,2.52.3,2.58,1.75,0,.87-.05,1.75,0,2.62.05.48.28,1.27.56,1.33a2,2,0,0,0,1.47-.51c2.59-2.22,5.14-4.49,7.69-6.76,1.28-1.13,3-2.07,3.65-3.5s.2-3.34.22-5c0-1,0-1.92,0-2.89,0-1.42.48-1.88,1.87-1.91,2.46,0,2.63.17,2.74,2.66a6.65,6.65,0,0,0,.65,1.84,6.1,6.1,0,0,0,1.71-.71c3.81-3.23,7.56-6.52,11.36-9.75A3.13,3.13,0,0,0,277,53.27c0-5.25,0-10.51.09-15.76a57,57,0,0,1,2.7-16.38A11.44,11.44,0,0,1,281.39,18c1.23-1.66,3-1.54,3.6.4a102.09,102.09,0,0,1,2.88,10.72c1.53,7.14.82,14.39.9,21.6.06,5.33-.69,3.6,3.25,7.18,3,2.76,6.13,5.48,9.24,8.17a5.57,5.57,0,0,0,1.57.68c.23-.58.46-1.15.67-1.73a1.27,1.27,0,0,0,0-.39c0-2.32,1.46-3.35,3.61-2.38a2.38,2.38,0,0,1,1,1.77c.11,2.27,0,4.55.05,6.82a2.91,2.91,0,0,0,.81,1.88c3.65,3.27,7.37,6.47,11.08,9.67a4.5,4.5,0,0,0,1.13.52,5.23,5.23,0,0,0,.38-1.18c.06-.87,0-1.75,0-2.62,0-1.46.55-1.89,2.19-1.89,1.88,0,2.42.4,2.43,1.92,0,2.37,0,4.73-.05,7.09a2.89,2.89,0,0,0,1.13,2.49c3.64,3.21,7.21,6.51,10.87,9.7a4.94,4.94,0,0,1,1.9,4.24c-.06,1,0,1.93,0,2.89,0,1.29-.49,1.57-1.63.9-2.5-1.45-4.93-3-7.45-4.41C324,98.15,317.1,94.14,310,90.54c-6.18-3.13-12.9-4.87-19.62-6.49-1.13-.27-1.65.29-1.78,1.33a9.52,9.52,0,0,0,0,1.31c-.06,10.63-.06,21.27-.21,31.91a55.1,55.1,0,0,1-.87,7.66,4.16,4.16,0,0,0,1.51,4.38c4.16,3.41,8.18,7,12.26,10.51,1.51,1.3,2.65,2.75,2.43,4.95-.15,1.6-.35,1.85-1.91,1.47-4.38-1-8.77-2.07-13.13-3.17-3.84-1-3.22-.83-4.91,2.16Z"/><path class="cls-8" d="M212.63,209.36l-26.5,4.82c-1.27-5.52-3.42-10.19-9.88-9.91s-8.08,5.32-9.28,10.62H120.55c-1.73-3.2-2.89-6.31-4.91-8.69-1.06-1.23-3.64-1.58-5.54-1.59-4.87,0-7.25,2.94-8.45,10.25-6.1,0-12.28.11-18.45-.12-.82,0-2.18-1.67-2.28-2.67-.48-4.75-2.22-10.25-.5-14.16,2.74-6.25,1.3-12.26,1.83-18.34.21-2.34,1-3.55,3.38-3.63,1.1,0,2.2-.08,3.31-.08q56.52,0,113,0a18.91,18.91,0,0,1,5.9.81,6.36,6.36,0,0,1,4.7,6C212.72,191.52,212.63,200.32,212.63,209.36Zm-59.35-25.51H130.63v10.67h22.65Zm27.69,0H158.32v10.66H181Zm-55.32,0H103v10.58h22.66Zm83.14,10.73c0-2.76.33-5.3-.13-7.69-.24-1.23-1.87-3.06-2.93-3.11-6.47-.29-12.95-.14-19.56-.14v10.94ZM95.84,209.36V183.81H89.45v25.55Z"/><circle class="cls-8" cx="176.8" cy="213.22" r="6.92"/><circle class="cls-9" cx="176.8" cy="213.22" r="2.64"/><circle class="cls-10" cx="110.36" cy="213.22" r="6.92"/><circle class="cls-9" cx="110.36" cy="213.22" r="2.64"/><path class="cls-11" d="M122.39,305.28c5.4-7.25,3-6.83,13.57-5.36a1.29,1.29,0,0,0,.19,0,3,3,0,0,1,2.92,2.75c.48,2.78,1.1,5.53,1.56,8.31.17,1,.45,1.63,1.59,1.75s1.78,0,2.34-1.07c1.34-2.63,2.86-5.15,4.24-7.76a2.45,2.45,0,0,1,2.81-1.43c2.48.35,5,.66,7.45.87a2.76,2.76,0,0,1,2.68,2.29c.66,2.61,1.33,5.21,1.91,7.84.22,1,.45,1.77,1.7,1.91a2,2,0,0,0,2.43-1.26,74.55,74.55,0,0,1,3.87-7.08,3.82,3.82,0,0,1,2.43-1.81,91.08,91.08,0,0,1,9.19.36,2.74,2.74,0,0,1,2.57,2.22c.58,2.1,1.27,4.17,1.83,6.27,1.09,4.05,1.07,4.11,5.34,4.52a2.44,2.44,0,0,1,2.58,2.26c.73,4.35,1.56,8.7,2.25,13.06.17,1.05.47,1.68,1.6,1.7,1.9,0,2.48,1.35,2.22,2.86-.42,2.37-1.18,4.68-1.77,7-.53,2.14-1.79,2.75-4,2.74q-59-.12-118-.06c-4.24,0-4.44,0-4.43-4.34A17.64,17.64,0,0,0,69.75,333c-3.36-4.6-6.57-9.32-9.65-14.12-1.84-2.87-1.35-3.67,2.1-3.66,4.61,0,9.22.22,13.83.47a2.86,2.86,0,0,0,3.08-1.59c2.16-3.63,4.56-7.12,6.71-10.76a3.68,3.68,0,0,1,4-2c8.14.92,16.29,1.76,24.42,2.76,2.46.31,5.33.21,6.13,4C121.28,306.82,121.83,306,122.39,305.28Zm67.87,15.2c-9.59-1.24-19.17-2.56-28.77-3.78q-25.92-3.29-51.85-6.49c-7.31-.91-14.63-1.73-21.94-2.66-1.78-.23-2.74.52-3.52,2.47,36.28,5.08,72.5,9.1,108.79,13.51A2.72,2.72,0,0,0,190.26,320.48Zm1,5q-10.4-1.37-20.78-2.64L90.58,313q-3-.36-5.93-.61c-1.73-.15-1.75-.1-2.34,2l111.76,13.3C193.85,325.35,192.36,325.62,191.27,325.47Zm1.27,3.68q-26.64-3-53.26-6l-29.58-3.35c-.63-.07-1.26-.06-2-.1-.15,1.57.25,2.27,1.87,2.45q33.88,3.76,67.77,7.64l15.27,1.74c.56.07,1.12.07,1.8.1C194.6,329.92,194,329.31,192.54,329.15Zm-83.39-4.89c-.13,2,.93,2.25,2.16,2.37,7.51.75,15,1.54,22.55,2.24q24.94,2.33,49.92,4.57c2.66.25,5.32.4,8,.6l0-.62Zm9.13-15c.29-1.94-.33-3-2-3.15-9-.92-18-1.84-26.93-2.6-1-.09-2,.84-3,1.3l.21.81Z"/><path class="cls-9" d="M193,323.53a2.72,2.72,0,0,0-2.71-3c-9.59-1.24-19.17-2.56-28.77-3.78q-25.92-3.29-51.85-6.49c-7.31-.91-14.63-1.73-21.94-2.66-1.78-.23-2.74.52-3.52,2.47C120.46,315.1,156.68,319.12,193,323.53Z"/><path class="cls-9" d="M194.07,327.61c-.22-2.26-1.71-2-2.8-2.14q-10.4-1.37-20.78-2.64L90.58,313q-3-.36-5.93-.61c-1.73-.15-1.75-.1-2.34,2Z"/><path class="cls-9" d="M194.42,331.6c.18-1.68-.39-2.29-1.88-2.45q-26.64-3-53.26-6l-29.58-3.35c-.63-.07-1.26-.06-2-.1-.15,1.57.25,2.27,1.87,2.45q33.88,3.76,67.77,7.64l15.27,1.74C193.18,331.57,193.74,331.57,194.42,331.6Z"/><path class="cls-9" d="M191.75,333.42l-82.6-9.16c-.13,2,.93,2.25,2.16,2.37,7.51.75,15,1.54,22.55,2.24q24.94,2.33,49.92,4.57c2.66.25,5.32.4,8,.6Z"/><path class="cls-9" d="M86.56,305.59l31.72,3.64c.29-1.94-.33-3-2-3.15-9-.92-18-1.84-26.93-2.6-1-.09-2,.84-3,1.3Z"/><path class="cls-12" d="M407,168.56s-.83.36-.83.46-.5,1.84-.5,1.84a37.37,37.37,0,0,0-3,6.94c-.83,3.09-.21,8.13-.21,8.13s.61,3.92,2.15,5.86l11.73,2.12a24.1,24.1,0,0,1-.58-6.72c.26-3.42,3.13-8.53,7.85-9.46s8.95-.68,12.26,2.66,4,6.94,3.38,14.17h59.5a25.2,25.2,0,0,1,.26-9.25c1.1-4.9,6.33-7.92,10.5-7.92s8.11,1.09,10.46,4.17,2.92,7.3,1.82,13.24l12.82-1v-2.73s-1.19-1-1.26-1.8.47-6.8.47-6.8L532.14,179a18.62,18.62,0,0,0-7.84-4.24,102.5,102.5,0,0,0-15.3-3.5c-6-.86-11.47-1.39-11.47-1.39l-3.93.34s-12.66-7.44-19.13-9.83a39.8,39.8,0,0,0-8.93-1.63,114.1,114.1,0,0,0-23.64,2s-8.92,2.16-12.18,3.17-8.15,3.16-8.15,3.16l-1-.05a19.26,19.26,0,0,1-4.56.82l-2.83-2.06-7.86-.29s-.24.69.86,1c0,0,1.27,0,1.34.84A1.47,1.47,0,0,1,407,168.56Z"/><path class="cls-9" d="M437.38,168.87a.73.73,0,0,1-.51-1.21,28.64,28.64,0,0,1,3.33-3.38,71.23,71.23,0,0,1,10-2.16c2.59-.25,17.74-1.23,17.74-1.23s11.18,4.75,17.8,9.93Z"/><path class="cls-9" d="M471.46,160.58l17.41,10.06,4.2-.32s-11.58-7.12-18.92-9.86Z"/><path class="cls-12" d="M476.82,166.77s-1.32.81-1.32,1v2.59s.1.34.66.41,1.95.12,1.95.12a6.32,6.32,0,0,0-.62,1.3,1.08,1.08,0,0,0,1,.85,8.73,8.73,0,0,0,2-.06,1.51,1.51,0,0,0,.72-.72c0-.13-.68-1.58-.68-1.58l.34-.24,0-2A5.58,5.58,0,0,0,476.82,166.77Z"/><path class="cls-9" d="M405.06,175.71s-.4-.18-.2-1.13,1.8-4.3,2.86-4.24-1.05,3.79-1.05,3.79S405.74,175.91,405.06,175.71Z"/><polygon class="cls-12" points="449.75 162.17 451.21 169.43 452.25 169.47 450.2 162.12 449.75 162.17"/><path class="cls-9" d="M488.83,175.35l5.67.58a.94.94,0,0,1,.72,1.41c-1.86,3.17-6.7,11.24-8.26,11.75-1.94.65-32.09,0-32.09,0s30.87-.86,31.59-1.15,7.48-10.79,7.48-10.79Z"/><path class="cls-9" d="M514.56,174.23s9.45,2.35,13,5.8a29.6,29.6,0,0,0,4.13,1,6.12,6.12,0,0,0-2.61-3c-2.2-1.48-10.72-3.6-10.72-3.6Z"/><circle class="cls-12" cx="427.68" cy="189.09" r="10.29"/><circle class="cls-9" cx="427.68" cy="189.09" r="7.91"/><circle class="cls-12" cx="510.2" cy="189.09" r="10.29"/><circle class="cls-9" cx="510.2" cy="189.09" r="7.91"/><path class="cls-13" d="M469.16,331.49v.22H398.57a16.91,16.91,0,0,1-16.24-12.26h73.11a16.9,16.9,0,0,0,13.72,12Zm-86.83-13.72a17.28,17.28,0,0,1-.66-4.64v-3.81a16.91,16.91,0,0,1,16.9-16.91h70.59v.2a16.9,16.9,0,0,0-14.37,16.71v3.79a17.54,17.54,0,0,0,.65,4.66Zm54.72-12.69a4.65,4.65,0,1,0,4.64-4.64,4.65,4.65,0,0,0-4.64,4.64Zm-15.92,0a4.65,4.65,0,1,0,4.64-4.64,4.65,4.65,0,0,0-4.64,4.64Zm-15.92,0a4.65,4.65,0,1,0,4.64-4.64,4.65,4.65,0,0,0-4.64,4.64Zm-15.93,0a4.65,4.65,0,1,0,4.65-4.64,4.65,4.65,0,0,0-4.65,4.64Zm85,14.37H460.51a17.19,17.19,0,0,0,16.26,12.26h69.3V319.45Zm0-26.84a18.15,18.15,0,0,1,2.54-.22h36.78a16.77,16.77,0,0,1,10.19,3.49c-12.07.52-21.18,2.91-21.18,5.81,0,3.27,11.63,5.93,26,5.93a104,104,0,0,0,10.54-.52,37.65,37.65,0,0,0,7,3.29v7.36H460.51a17.16,17.16,0,0,1-.64-4.64V309.3a16.89,16.89,0,0,1,14.36-16.69Zm8.48,12.47a4.65,4.65,0,1,0,4.64-4.64,4.65,4.65,0,0,0-4.64,4.64Zm-15.66,0a4.65,4.65,0,0,0,4.65,4.65,4.7,4.7,0,0,0,2.53-.75,4.65,4.65,0,0,0,2.11-3.9,4.59,4.59,0,0,0-2.11-3.89,4.54,4.54,0,0,0-2.53-.75,4.63,4.63,0,0,0-4.65,4.64Zm93.75,14.37h-13v12.26a18,18,0,0,0,12-5,5.7,5.7,0,0,0,1.08-7.24Zm-10.3-8.4a15,15,0,0,1-2.71-.66v7.38h13c-1.7-3.3-5.83-6.16-10.3-6.72Zm0,0"/><rect class="cls-5" x="10" y="387.99" width="580" height="195.18" rx="12" ry="12"/></svg>