<svg id="Layer_1" data-name="Layer 1" xmlns="http://www.w3.org/2000/svg" viewBox="0 0 600 200"><defs><style>.cls-1,.cls-6,.cls-7,.cls-9{fill:none;}.cls-1{stroke:#f58c73;stroke-width:2.22px;}.cls-1,.cls-6,.cls-7,.cls-8,.cls-9{stroke-miterlimit:10;}.cls-2{fill:#f58c73;}.cls-3{fill:#fff;}.cls-4{fill:#d39a47;}.cls-5{fill:#00c853;}.cls-6,.cls-9{stroke:#00c853;}.cls-6{stroke-width:3.16px;}.cls-7{stroke:#d39a47;stroke-width:2.6px;}.cls-8{fill:#6d4c41;stroke:#6d4c41;stroke-width:3.94px;}.cls-9{stroke-width:2.36px;}</style></defs><title>Banner</title><polyline class="cls-1" points="550 42.84 304.2 42.84 304.2 57"/><path class="cls-2" d="M446.74,11.14a4.9,4.9,0,0,1,3.63-4.64,14.44,14.44,0,0,1,4.54-.62q43.57-.06,87.15,0c.85,0,1.7,0,2.55.07,1.81.06,2.45,1,2.61,2.8.41,4.68-.71,9.32,1.41,14.13,1.32,3,0,7.26-.39,10.93-.08.76-1.12,2-1.76,2-4.75.18-9.52.1-14.22.1-.92-5.64-2.76-7.94-6.52-7.91-1.46,0-3.45.28-4.26,1.23-1.56,1.83-2.45,4.23-3.79,6.7H481.91c-.93-4.09-2.2-8-7.16-8.19s-6.64,3.39-7.62,7.64L446.7,31.69C446.7,24.72,446.63,17.93,446.74,11.14Zm45.72,9.11h17.46V12H492.46Zm-21.35,0h17.46V12H471.11Zm42.65,0h17.47V12.05H513.76Zm-46.66.12V11.89C462,11.89,457,11.78,452,12c-.82,0-2.07,1.45-2.26,2.4a32.16,32.16,0,0,0-.1,5.93Zm74.57,11.36V12h-4.93v19.7Z"/><circle class="cls-2" cx="474.32" cy="34.66" r="5.34"/><circle class="cls-3" cx="474.32" cy="34.66" r="2.04"/><circle class="cls-2" cx="525.55" cy="34.66" r="5.34"/><circle class="cls-3" cx="525.55" cy="34.66" r="2.04"/><path class="cls-4" d="M393.2,104.83s-.57.25-.57.32-.35,1.26-.35,1.26a25.81,25.81,0,0,0-2,4.78,18.77,18.77,0,0,0-.15,5.59,10.62,10.62,0,0,0,1.49,4l8.06,1.46a16.73,16.73,0,0,1-.4-4.63c.18-2.35,2.15-5.86,5.39-6.5s6.16-.47,8.44,1.83,2.74,4.77,2.32,9.74h40.9a17.25,17.25,0,0,1,.18-6.36c.76-3.37,4.35-5.44,7.22-5.44s5.57.75,7.19,2.86,2,5,1.25,9.11l8.81-.66v-1.88s-.81-.7-.86-1.24.32-4.67.32-4.67L479.23,112a12.87,12.87,0,0,0-5.39-2.91,69.68,69.68,0,0,0-10.52-2.4c-4.12-.6-7.88-1-7.88-1l-2.7.23s-8.71-5.11-13.16-6.76a27.27,27.27,0,0,0-6.13-1.12,78.83,78.83,0,0,0-16.26,1.39s-6.13,1.48-8.37,2.17-5.61,2.18-5.61,2.18l-.69,0a13.55,13.55,0,0,1-3.13.56l-1.95-1.42-5.4-.2s-.17.48.59.66c0,0,.87,0,.92.58A1,1,0,0,1,393.2,104.83Z"/><path class="cls-3" d="M414.09,105.05a.5.5,0,0,1-.35-.83,19.54,19.54,0,0,1,2.28-2.33,50,50,0,0,1,6.88-1.48c1.78-.18,12.2-.84,12.2-.84s7.68,3.26,12.23,6.82Z"/><path class="cls-3" d="M437.51,99.35l12,6.92,2.89-.23s-8-4.89-13-6.77Z"/><path class="cls-4" d="M441.2,103.6s-.91.56-.91.73v1.78s.07.23.45.28,1.35.08,1.35.08a4.35,4.35,0,0,0-.43.89.73.73,0,0,0,.66.59,5.87,5.87,0,0,0,1.4,0,1.06,1.06,0,0,0,.49-.5c0-.09-.47-1.09-.47-1.09l.23-.16,0-1.39A3.87,3.87,0,0,0,441.2,103.6Z"/><path class="cls-3" d="M391.86,109.75s-.27-.12-.13-.78,1.23-3,2-2.91-.71,2.61-.71,2.61S392.33,109.89,391.86,109.75Z"/><polygon class="cls-4" points="422.59 100.44 423.59 105.43 424.31 105.46 422.9 100.41 422.59 100.44"/><path class="cls-3" d="M449.45,109.51l3.9.39a.65.65,0,0,1,.5,1c-1.28,2.18-4.61,7.72-5.68,8.08-1.34.45-22.06,0-22.06,0s21.22-.59,21.71-.79,5.15-7.42,5.15-7.42Z"/><path class="cls-3" d="M467.14,108.73s6.5,1.62,9,4a21,21,0,0,0,2.84.66,4.21,4.21,0,0,0-1.8-2c-1.51-1-7.37-2.48-7.37-2.48Z"/><circle class="cls-4" cx="407.42" cy="118.95" r="7.07"/><circle class="cls-3" cx="407.42" cy="118.95" r="5.44"/><circle class="cls-4" cx="464.14" cy="118.95" r="7.07"/><circle class="cls-3" cx="464.14" cy="118.95" r="5.44"/><path class="cls-5" d="M494.16,191.49v.22H423.57a16.91,16.91,0,0,1-16.24-12.26h73.11a16.9,16.9,0,0,0,13.72,12Zm-86.83-13.72a17.28,17.28,0,0,1-.66-4.64v-3.81a16.91,16.91,0,0,1,16.9-16.91h70.59v.2a16.9,16.9,0,0,0-14.37,16.71v3.79a17.54,17.54,0,0,0,.65,4.66Zm54.72-12.69a4.65,4.65,0,1,0,4.64-4.64,4.65,4.65,0,0,0-4.64,4.64Zm-15.92,0a4.65,4.65,0,1,0,4.64-4.64,4.65,4.65,0,0,0-4.64,4.64Zm-15.92,0a4.65,4.65,0,1,0,4.64-4.64,4.65,4.65,0,0,0-4.64,4.64Zm-15.93,0a4.65,4.65,0,1,0,4.65-4.64,4.65,4.65,0,0,0-4.65,4.64Zm85,14.37H485.51a17.19,17.19,0,0,0,16.26,12.26h69.3V179.45Zm0-26.84a18.15,18.15,0,0,1,2.54-.22h36.78a16.77,16.77,0,0,1,10.19,3.49c-12.07.52-21.18,2.91-21.18,5.81,0,3.27,11.63,5.93,26,5.93a104,104,0,0,0,10.54-.52,37.65,37.65,0,0,0,7,3.29v7.36H485.51a17.16,17.16,0,0,1-.64-4.64V169.3a16.89,16.89,0,0,1,14.36-16.69Zm8.48,12.47a4.65,4.65,0,1,0,4.64-4.64,4.65,4.65,0,0,0-4.64,4.64Zm-15.66,0a4.65,4.65,0,0,0,4.65,4.65,4.7,4.7,0,0,0,2.53-.75,4.65,4.65,0,0,0,2.11-3.9,4.59,4.59,0,0,0-2.11-3.89,4.54,4.54,0,0,0-2.53-.75,4.63,4.63,0,0,0-4.65,4.64Zm93.75,14.37h-13v12.26a18,18,0,0,0,12-5,5.7,5.7,0,0,0,1.08-7.24Zm-10.3-8.4a15,15,0,0,1-2.71-.66v7.38h13c-1.7-3.3-5.83-6.16-10.3-6.72Zm0,0"/><line class="cls-6" x1="122" y1="195.88" x2="593.08" y2="195.88"/><line class="cls-6" x1="123.5" y1="197.5" x2="123.5" y2="168.5"/><path class="cls-7" d="M349.29,82.22h27.57V132H387c96.5,0,96.5-.12,96.5-.12"/><path class="cls-8" d="M64.88,76.37v61.54H58.64V76.37H39.27V70.65h45v5.72Z"/><path class="cls-8" d="M109.86,96a9,9,0,0,0-5.44-1.54,9.34,9.34,0,0,0-4.23.91A10.79,10.79,0,0,0,97,97.85a15,15,0,0,0-2.34,3.59,25.08,25.08,0,0,0-1.55,4.25,30.87,30.87,0,0,0-.84,4.45,35.9,35.9,0,0,0-.26,4.27v23.5H86v-48h6v10.27h.18a21.66,21.66,0,0,1,2.14-4.71,14.54,14.54,0,0,1,3-3.52A12.43,12.43,0,0,1,101,89.74a11.84,11.84,0,0,1,4.2-.75,15.69,15.69,0,0,1,2.6.19,9.66,9.66,0,0,1,2.09.56Z"/><path class="cls-8" d="M121.54,77.73a4.18,4.18,0,0,1-3-1.22,4.11,4.11,0,0,1-1.26-3.09,4,4,0,0,1,1.26-3,4.27,4.27,0,0,1,3-1.19,4.72,4.72,0,0,1,1.68.3,4,4,0,0,1,1.39.87,4.31,4.31,0,0,1,.94,1.34,4.12,4.12,0,0,1,.35,1.71,4.39,4.39,0,0,1-.33,1.69,4,4,0,0,1-.94,1.38,4.47,4.47,0,0,1-1.38.91A4.34,4.34,0,0,1,121.54,77.73Zm-3,60.18v-48h6v48Z"/><path class="cls-8" d="M146.06,130.17V160h-6V89.88h6v9.19h.19a19.17,19.17,0,0,1,7.15-7.67,20.83,20.83,0,0,1,18.34-1,17.08,17.08,0,0,1,6.15,4.71,21.51,21.51,0,0,1,3.84,7.41,33.49,33.49,0,0,1,1.34,9.81,36.91,36.91,0,0,1-1.5,10.85,24.92,24.92,0,0,1-4.32,8.42,19.55,19.55,0,0,1-6.82,5.47,20.5,20.5,0,0,1-9,1.94,16.34,16.34,0,0,1-15.15-8.86Zm0-12.24a17.06,17.06,0,0,0,1.11,6.17,15.92,15.92,0,0,0,3.07,5.06,14.4,14.4,0,0,0,4.76,3.45,14.83,14.83,0,0,0,6.17,1.26,13.81,13.81,0,0,0,6.52-1.52,14.29,14.29,0,0,0,4.94-4.34,21.05,21.05,0,0,0,3.15-6.8,33.65,33.65,0,0,0,1.1-8.91,26.45,26.45,0,0,0-1-7.62,17.33,17.33,0,0,0-2.93-5.79,12.63,12.63,0,0,0-4.6-3.66,14,14,0,0,0-6-1.27,16,16,0,0,0-6.75,1.38,15.34,15.34,0,0,0-5.11,3.78,16.63,16.63,0,0,0-3.24,5.6,20.56,20.56,0,0,0-1.13,6.83Z"/><path class="cls-8" d="M232.79,137.91l-10.13-19.28a38.8,38.8,0,0,0-2.91-4.78,14.89,14.89,0,0,0-2.91-3.07,9.62,9.62,0,0,0-3.21-1.65,14.22,14.22,0,0,0-3.83-.49h-7.41v29.27h-6.23V70.65h19.37a24.16,24.16,0,0,1,7.34,1.13,19.41,19.41,0,0,1,6.3,3.33,16.21,16.21,0,0,1,4.44,5.53,17.09,17.09,0,0,1,1.66,7.74A19.27,19.27,0,0,1,234.19,95a16.83,16.83,0,0,1-3.07,5.32,18.16,18.16,0,0,1-4.83,3.94,22.91,22.91,0,0,1-6.4,2.41v.19a10.44,10.44,0,0,1,2.48,1.46,14.69,14.69,0,0,1,2.18,2.15,27.37,27.37,0,0,1,2.09,2.91q1,1.65,2.16,3.75l11.3,20.83Zm-30.4-61.54V103h11.17a18.56,18.56,0,0,0,6.19-1,13.68,13.68,0,0,0,4.8-2.81,12.72,12.72,0,0,0,3.1-4.41,14.77,14.77,0,0,0,1.1-5.82A11.69,11.69,0,0,0,225,79.73q-3.78-3.36-10.91-3.36Z"/><path class="cls-8" d="M250.75,115a26.92,26.92,0,0,0,1.17,7.93,16.85,16.85,0,0,0,3.24,6,13.93,13.93,0,0,0,5.13,3.72,17.29,17.29,0,0,0,6.83,1.29,24.4,24.4,0,0,0,15.33-5.67v5.91Q275.57,139,265.76,139a22,22,0,0,1-8.77-1.69,18,18,0,0,1-6.71-4.9,22.26,22.26,0,0,1-4.27-7.9,35.08,35.08,0,0,1-1.5-10.69,29.57,29.57,0,0,1,1.64-10,24.6,24.6,0,0,1,4.55-8,21,21,0,0,1,6.9-5.26,20.06,20.06,0,0,1,8.72-1.9,19.66,19.66,0,0,1,8.21,1.62,16.18,16.18,0,0,1,6,4.62,20.83,20.83,0,0,1,3.68,7.32,34.45,34.45,0,0,1,1.27,9.66v3Zm28.52-5.25q-.15-7.5-3.57-11.63A11.7,11.7,0,0,0,266.18,94,14.58,14.58,0,0,0,260.53,95,13.38,13.38,0,0,0,256,98.16a16.55,16.55,0,0,0-3.26,5,24.75,24.75,0,0,0-1.81,6.59Z"/><path class="cls-8" d="M329.17,135.75a25.14,25.14,0,0,1-12.95,3.33,22.15,22.15,0,0,1-9.28-1.78,20.45,20.45,0,0,1-7-5.09,22.54,22.54,0,0,1-4.45-7.69,28.87,28.87,0,0,1-1.55-9.64,31.09,31.09,0,0,1,1.64-10.16,24.3,24.3,0,0,1,4.78-8.3,22.57,22.57,0,0,1,7.7-5.6,24.87,24.87,0,0,1,10.41-2.07,25.43,25.43,0,0,1,10.88,2.3v6.38A20.23,20.23,0,0,0,318,94a17.15,17.15,0,0,0-7.6,1.62,16.29,16.29,0,0,0-5.6,4.41,19.5,19.5,0,0,0-3.47,6.52,25.61,25.61,0,0,0-1.2,7.9,26.65,26.65,0,0,0,1,7.36,18.24,18.24,0,0,0,3.09,6.22,15,15,0,0,0,5.28,4.29,16.64,16.64,0,0,0,7.5,1.59,20,20,0,0,0,12.2-4Z"/><rect class="cls-9" x="20" y="56.99" width="329.89" height="111.01" rx="12" ry="12"/></svg>