<svg id="Layer_1" data-name="Layer 1" xmlns="http://www.w3.org/2000/svg" viewBox="0 0 600 600"><defs><style>.cls-1,.cls-14,.cls-3,.cls-4,.cls-5,.cls-6{fill:none;}.cls-1{stroke:#80a1c1;}.cls-1,.cls-10,.cls-14,.cls-2,.cls-3,.cls-4,.cls-5,.cls-6,.cls-7{stroke-miterlimit:10;}.cls-1,.cls-3,.cls-4,.cls-6{stroke-width:2px;}.cls-2{fill:#6d4c41;stroke-width:5px;}.cls-14,.cls-2{stroke:#6d4c41;}.cls-3{stroke:#f58c73;}.cls-4{stroke:#d39a47;}.cls-5,.cls-7{stroke:#00c853;}.cls-5{stroke-width:3px;}.cls-6{stroke:#83cda1;}.cls-7{fill:#00c853;}.cls-10,.cls-8{fill:#f58c73;}.cls-9{fill:#fff;}.cls-10{stroke:#fff;}.cls-11{fill:#80a1c1;}.cls-12{fill:#d39a47;}.cls-13{fill:#83cda1;}.cls-14{stroke-width:15px;}</style></defs><title>Circle_Logo</title><polyline class="cls-1" points="274.5 333.81 274.5 306.81 135.5 306.81"/><path class="cls-2" d="M147.5,358.19v78.15h-7.92V358.19H115v-7.27h57.19v7.27Z"/><path class="cls-2" d="M204.63,383.15a11.34,11.34,0,0,0-6.91-2,11.88,11.88,0,0,0-5.36,1.16,13.65,13.65,0,0,0-4.08,3.13,18.43,18.43,0,0,0-3,4.56,31.25,31.25,0,0,0-2,5.39,38.94,38.94,0,0,0-1.07,5.66,47.24,47.24,0,0,0-.33,5.42v29.84h-7.56v-61h7.56v13.05h.24a27,27,0,0,1,2.71-6,18.49,18.49,0,0,1,3.78-4.47,15.94,15.94,0,0,1,4.68-2.77,15.11,15.11,0,0,1,5.33-1,20.64,20.64,0,0,1,3.31.24,13.3,13.3,0,0,1,2.65.71Z"/><path class="cls-2" d="M219.46,359.91a5.4,5.4,0,0,1-5.42-5.48,5.06,5.06,0,0,1,1.61-3.84,5.37,5.37,0,0,1,3.81-1.52,6,6,0,0,1,2.15.39,5.1,5.1,0,0,1,1.75,1.1,5.27,5.27,0,0,1,1.19,1.7,5.14,5.14,0,0,1,.45,2.17,5.57,5.57,0,0,1-.42,2.15,4.91,4.91,0,0,1-1.19,1.75,5.39,5.39,0,0,1-3.93,1.58Zm-3.75,76.43v-61h7.62v61Z"/><path class="cls-2" d="M250.62,426.51V464.4H243V375.34h7.63V387h.23a24.28,24.28,0,0,1,9.09-9.74A26.44,26.44,0,0,1,283.23,376a21.57,21.57,0,0,1,7.8,6,27.07,27.07,0,0,1,4.89,9.42,42.45,42.45,0,0,1,1.7,12.45,47,47,0,0,1-1.91,13.79,31.87,31.87,0,0,1-5.48,10.69,24.85,24.85,0,0,1-8.67,6.94,25.88,25.88,0,0,1-11.46,2.47q-12.87,0-19.25-11.26Zm0-15.55a21.6,21.6,0,0,0,1.4,7.84,20.26,20.26,0,0,0,3.9,6.43,18.09,18.09,0,0,0,6,4.38,18.82,18.82,0,0,0,7.84,1.61,17.56,17.56,0,0,0,8.28-1.94,17.94,17.94,0,0,0,6.28-5.51,26.52,26.52,0,0,0,4-8.64,42.09,42.09,0,0,0,1.4-11.31,33,33,0,0,0-1.31-9.68,21.79,21.79,0,0,0-3.72-7.36,16,16,0,0,0-5.84-4.65,17.79,17.79,0,0,0-7.65-1.61,20.28,20.28,0,0,0-8.58,1.76,19.21,19.21,0,0,0-6.49,4.8,21.11,21.11,0,0,0-4.11,7.12,25.84,25.84,0,0,0-1.43,8.66Z"/><path class="cls-2" d="M360.76,436.34l-12.87-24.48a49.16,49.16,0,0,0-3.69-6.08,18.81,18.81,0,0,0-3.69-3.9,12.36,12.36,0,0,0-4.08-2.09,17.84,17.84,0,0,0-4.86-.62h-9.41v37.17h-7.92V350.92h24.6a30.35,30.35,0,0,1,9.32,1.43,24.59,24.59,0,0,1,8,4.23,20.52,20.52,0,0,1,5.63,7,21.69,21.69,0,0,1,2.12,9.83,24.65,24.65,0,0,1-1.37,8.34,21.7,21.7,0,0,1-3.9,6.76,23.24,23.24,0,0,1-6.14,5,29.26,29.26,0,0,1-8.13,3.07v.24a13.27,13.27,0,0,1,3.16,1.84,19.82,19.82,0,0,1,2.77,2.74,36.58,36.58,0,0,1,2.65,3.7c.87,1.39,1.79,3,2.74,4.76l14.35,26.45Zm-38.6-78.15V392h14.18a23.73,23.73,0,0,0,7.86-1.25,17.38,17.38,0,0,0,6.11-3.57,16.3,16.3,0,0,0,3.93-5.6,18.72,18.72,0,0,0,1.4-7.39c0-5-1.6-8.87-4.8-11.7S343,358.19,337,358.19Z"/><path class="cls-2" d="M383.58,407.21a33.94,33.94,0,0,0,1.49,10.07,21.16,21.16,0,0,0,4.11,7.56,17.54,17.54,0,0,0,6.52,4.74,21.94,21.94,0,0,0,8.67,1.64q10.31,0,19.48-7.21v7.51q-8.76,6.25-21.21,6.25a28,28,0,0,1-11.14-2.14A23.07,23.07,0,0,1,383,429.4a28.42,28.42,0,0,1-5.42-10,44.5,44.5,0,0,1-1.91-13.58,37.54,37.54,0,0,1,2.09-12.69A31.15,31.15,0,0,1,383.52,383a26.69,26.69,0,0,1,8.75-6.68,25.56,25.56,0,0,1,11.08-2.41A25,25,0,0,1,413.78,376a20.38,20.38,0,0,1,7.59,5.86,26.51,26.51,0,0,1,4.68,9.3,43.57,43.57,0,0,1,1.61,12.27v3.81Zm36.22-6.67q-.18-9.53-4.53-14.77t-12.09-5.25a18.59,18.59,0,0,0-7.18,1.37,17.14,17.14,0,0,0-5.81,4,21.2,21.2,0,0,0-4.14,6.31,31.48,31.48,0,0,0-2.29,8.37Z"/><path class="cls-2" d="M483.18,433.6q-6.8,4.11-16.44,4.23a28.18,28.18,0,0,1-11.8-2.26A25.88,25.88,0,0,1,446,429.1a28.51,28.51,0,0,1-5.66-9.77,36.88,36.88,0,0,1-2-12.24,39.28,39.28,0,0,1,2.09-12.89,30.79,30.79,0,0,1,6.07-10.55,28.79,28.79,0,0,1,9.77-7.12,31.81,31.81,0,0,1,13.23-2.62,32.38,32.38,0,0,1,13.82,2.92v8.1a25.67,25.67,0,0,0-14.42-4.41,21.82,21.82,0,0,0-9.65,2.06,20.84,20.84,0,0,0-7.12,5.6,25.27,25.27,0,0,0-4.41,8.28,32.75,32.75,0,0,0-1.51,10,33.57,33.57,0,0,0,1.28,9.35,23,23,0,0,0,3.93,7.89,19,19,0,0,0,6.7,5.45,21.08,21.08,0,0,0,9.53,2,25.41,25.41,0,0,0,15.49-5.12Z"/><polyline class="cls-3" points="135.5 213.81 241.5 213.81 241.5 261.81 280.5 261.81 280.5 331.81"/><polyline class="cls-4" points="470.5 199.81 369.5 199.81 369.5 227.81 294.5 227.81 294.5 333.81"/><line class="cls-5" x1="287.5" y1="163.31" x2="287.5" y2="333.31"/><polyline class="cls-6" points="301.5 331.81 301.5 298.81 491.5 298.81"/><path class="cls-7" d="M287.55,160.39c-.41-.92-.77-1.65-1.07-2.41s-.6-.76-1.26-.59c-3.8.94-7.61,1.83-11.41,2.75-1.5.36-1.59.26-1.61-1.31a3.7,3.7,0,0,1,1.37-2.8c3-2.88,6-5.79,9-8.66a3,3,0,0,0,1-2.79,49.28,49.28,0,0,1-.41-6c0-7.81.06-15.62.1-23.43,0-1.32-.3-1.53-1.6-1.25a75.64,75.64,0,0,0-23.43,9.44c-3.69,2.25-7.46,4.39-11.19,6.57-.77.46-1,.34-1-.53,0-1.17,0-2.34,0-3.51a3.21,3.21,0,0,1,1.33-2.41c2.68-2.27,5.34-4.56,8-6.82a1.72,1.72,0,0,0,.72-1.52c0-1.71,0-3.41,0-5.12,0-1,.38-1.3,1.43-1.31,1.45,0,1.82.22,1.86,1.26,0,.63,0,1.27,0,1.89,0,.35.2.92.4,1a1.45,1.45,0,0,0,1.07-.37c1.87-1.6,3.71-3.24,5.56-4.88.91-.82,2.17-1.49,2.63-2.52s.14-2.42.16-3.65c0-.7,0-1.39,0-2.09,0-1,.35-1.36,1.35-1.38,1.78,0,1.9.12,2,1.92a5,5,0,0,0,.47,1.33,4.45,4.45,0,0,0,1.24-.52c2.75-2.33,5.46-4.7,8.21-7a2.29,2.29,0,0,0,.84-1.89c0-3.8,0-7.59.07-11.39a41,41,0,0,1,1.95-11.83,7.91,7.91,0,0,1,1.13-2.27c.9-1.2,2.15-1.11,2.61.29a77,77,0,0,1,2.08,7.75c1.1,5.15.59,10.39.65,15.6,0,3.85-.5,2.6,2.34,5.18,2.2,2,4.44,4,6.68,5.91a4,4,0,0,0,1.14.49c.16-.42.33-.83.48-1.25a.88.88,0,0,0,0-.28c0-1.68,1.05-2.42,2.61-1.72a1.7,1.7,0,0,1,.7,1.28c.08,1.64,0,3.29,0,4.93a2.09,2.09,0,0,0,.59,1.35c2.63,2.37,5.32,4.68,8,7a3.43,3.43,0,0,0,.82.38,4.07,4.07,0,0,0,.27-.86c0-.63,0-1.26,0-1.89,0-1.06.39-1.37,1.58-1.37,1.35,0,1.75.29,1.76,1.39,0,1.71,0,3.42,0,5.13a2.08,2.08,0,0,0,.81,1.79c2.63,2.32,5.21,4.7,7.86,7a3.59,3.59,0,0,1,1.37,3.06c0,.7,0,1.39,0,2.09,0,.93-.36,1.13-1.18.65-1.8-1-3.57-2.17-5.38-3.18-5-2.81-10-5.71-15.11-8.3a63.89,63.89,0,0,0-14.17-4.7c-.82-.19-1.2.21-1.29,1a7.49,7.49,0,0,0,0,1c0,7.68-.05,15.37-.15,23a39.81,39.81,0,0,1-.63,5.54,3,3,0,0,0,1.09,3.16c3,2.47,5.91,5,8.86,7.59a4,4,0,0,1,1.75,3.58c-.11,1.16-.25,1.34-1.38,1.06-3.16-.75-6.33-1.49-9.48-2.29-2.78-.7-2.33-.6-3.55,1.56C288.06,159.51,287.86,159.86,287.55,160.39Z"/><path class="cls-8" d="M236.88,204.52,217.74,208c-.92-4-2.47-7.36-7.14-7.15s-5.84,3.83-6.71,7.66H170.36c-1.25-2.31-2.08-4.56-3.55-6.27-.76-.89-2.62-1.14-4-1.15-3.53,0-5.24,2.12-6.11,7.41-4.41,0-8.87.07-13.33-.09-.59,0-1.57-1.21-1.64-1.93-.35-3.44-1.61-7.41-.37-10.23,2-4.51.94-8.86,1.33-13.25.14-1.69.74-2.56,2.44-2.62.79,0,1.59-.06,2.38-.06q40.85,0,81.67,0a13.58,13.58,0,0,1,4.26.58,4.6,4.6,0,0,1,3.4,4.35C237,191.63,236.88,198,236.88,204.52ZM194,186.09H177.64v7.71H194Zm20,0H197.65v7.7H214Zm-40,0H157.68v7.64h16.37Zm60.06,7.75a29.8,29.8,0,0,0-.1-5.55c-.17-.89-1.34-2.22-2.11-2.25-4.67-.21-9.36-.11-14.13-.11v7.91Zm-81.6,10.64V186.07h-4.62v18.45Z"/><circle class="cls-8" cx="211" cy="207.31" r="5"/><circle class="cls-9" cx="211" cy="207.31" r="1.91"/><circle class="cls-10" cx="163" cy="207.31" r="5"/><circle class="cls-9" cx="163" cy="207.31" r="1.91"/><path class="cls-11" d="M171.7,273.81c3.89-5.23,2.18-4.93,9.8-3.86l.13,0a2.15,2.15,0,0,1,2.11,2c.35,2,.8,4,1.13,6,.12.74.33,1.18,1.15,1.27s1.28,0,1.69-.78c1-1.89,2.07-3.72,3.06-5.6a1.76,1.76,0,0,1,2-1c1.79.24,3.58.47,5.38.62a2,2,0,0,1,1.94,1.66c.48,1.88,1,3.76,1.38,5.66.16.73.32,1.28,1.23,1.38a1.45,1.45,0,0,0,1.75-.91,55.17,55.17,0,0,1,2.8-5.12A2.76,2.76,0,0,1,209,273.8c2.21-.06,4.43.11,6.64.26a2,2,0,0,1,1.86,1.61c.42,1.52.92,3,1.32,4.53.79,2.93.77,3,3.86,3.26a1.78,1.78,0,0,1,1.86,1.63c.53,3.15,1.13,6.29,1.63,9.44.12.76.34,1.21,1.15,1.23,1.38,0,1.8,1,1.61,2.06-.31,1.72-.86,3.39-1.28,5.09-.38,1.54-1.29,2-2.91,2q-42.65-.09-85.28-.05c-3.07,0-3.21,0-3.2-3.13a12.73,12.73,0,0,0-2.63-7.84c-2.42-3.33-4.74-6.74-7-10.2-1.33-2.07-1-2.66,1.52-2.65,3.33,0,6.66.16,10,.35a2.09,2.09,0,0,0,2.23-1.15c1.55-2.63,3.29-5.15,4.85-7.78a2.65,2.65,0,0,1,2.84-1.46c5.89.67,11.77,1.27,17.65,2,1.77.22,3.85.15,4.43,2.9C170.89,274.92,171.28,274.36,171.7,273.81Zm49,11c-6.93-.9-13.85-1.85-20.78-2.73q-18.72-2.38-37.46-4.69c-5.28-.66-10.57-1.26-15.85-1.93-1.28-.16-2,.38-2.54,1.79,26.21,3.67,52.38,6.57,78.59,9.76A2,2,0,0,0,220.72,284.8Zm.73,3.6c-5-.66-10-1.28-15-1.91l-57.73-7.13c-1.42-.18-2.85-.33-4.28-.45-1.25-.1-1.27-.07-1.69,1.43L223.47,290C223.31,288.31,222.24,288.51,221.45,288.4Zm.92,2.66q-19.25-2.15-38.48-4.36l-21.37-2.42c-.45,0-.9,0-1.43-.07-.11,1.13.18,1.64,1.35,1.77q24.48,2.72,49,5.52l11,1.26c.4.05.81.05,1.3.07C223.86,291.62,223.44,291.17,222.37,291.06Zm-60.24-3.54c-.1,1.44.67,1.63,1.55,1.72,5.44.54,10.86,1.11,16.3,1.62q18,1.68,36.06,3.3c1.92.17,3.85.29,5.77.43v-.45Zm6.59-10.86c.21-1.39-.23-2.15-1.43-2.27-6.48-.66-13-1.33-19.45-1.88-.7-.06-1.45.61-2.18.94l.14.59Z"/><path class="cls-9" d="M222.68,287a2,2,0,0,0-2-2.2c-6.93-.9-13.85-1.85-20.78-2.73q-18.72-2.38-37.46-4.69c-5.28-.66-10.57-1.26-15.85-1.93-1.28-.16-2,.38-2.54,1.79C170.3,280.91,196.47,283.81,222.68,287Z"/><path class="cls-9" d="M223.47,290c-.16-1.64-1.23-1.44-2-1.55-5-.66-10-1.28-15-1.91l-57.73-7.13c-1.42-.18-2.85-.33-4.28-.45-1.25-.1-1.27-.07-1.69,1.43Z"/><path class="cls-9" d="M223.73,292.83c.13-1.21-.29-1.66-1.36-1.77q-19.25-2.15-38.48-4.36l-21.37-2.42c-.45,0-.9,0-1.43-.07-.11,1.13.18,1.64,1.35,1.77q24.48,2.72,49,5.52l11,1.26C222.83,292.81,223.24,292.81,223.73,292.83Z"/><path class="cls-9" d="M221.8,294.14l-59.67-6.62c-.1,1.44.67,1.63,1.55,1.72,5.44.54,10.86,1.11,16.3,1.62q18,1.68,36.06,3.3c1.92.17,3.85.29,5.77.43Z"/><path class="cls-9" d="M145.8,274l22.92,2.62c.21-1.39-.23-2.15-1.43-2.27-6.48-.66-13-1.33-19.45-1.88-.7-.06-1.45.61-2.18.94Z"/><path class="cls-12" d="M377.3,175s-.6.26-.6.34-.36,1.33-.36,1.33a27,27,0,0,0-2.16,5,19.68,19.68,0,0,0-.16,5.87,11.15,11.15,0,0,0,1.56,4.24l8.47,1.53a17.69,17.69,0,0,1-.41-4.86c.18-2.47,2.26-6.16,5.66-6.83s6.47-.49,8.86,1.92,2.89,5,2.45,10.24h43a18.27,18.27,0,0,1,.2-6.69c.79-3.53,4.57-5.71,7.58-5.71s5.86.79,7.56,3,2.11,5.27,1.31,9.56l9.26-.69v-2s-.86-.73-.91-1.3.34-4.91.34-4.91l-1.22-2.55a13.37,13.37,0,0,0-5.67-3.06A73.41,73.41,0,0,0,451,177c-4.33-.62-8.28-1-8.28-1l-2.84.24s-9.15-5.37-13.82-7.1a28.48,28.48,0,0,0-6.45-1.18,82.65,82.65,0,0,0-17.08,1.45s-6.44,1.56-8.8,2.29-5.89,2.29-5.89,2.29l-.73,0a13.74,13.74,0,0,1-3.29.59l-2-1.49-5.68-.21s-.18.51.62.7c0,0,.92,0,1,.6A1.07,1.07,0,0,1,377.3,175Z"/><path class="cls-9" d="M399.25,175.27a.52.52,0,0,1-.37-.87,20.79,20.79,0,0,1,2.4-2.45,52.52,52.52,0,0,1,7.22-1.56c1.88-.18,12.82-.88,12.82-.88s8.08,3.43,12.86,7.17Z"/><path class="cls-9" d="M423.86,169.28l12.58,7.27,3-.23s-8.37-5.15-13.67-7.12Z"/><path class="cls-12" d="M427.73,173.75s-1,.59-1,.76v1.87s.08.25.48.3,1.41.09,1.41.09a4.48,4.48,0,0,0-.45.93.77.77,0,0,0,.69.62,5.81,5.81,0,0,0,1.47,0,1.08,1.08,0,0,0,.52-.52c0-.09-.49-1.14-.49-1.14l.24-.17,0-1.46A4.07,4.07,0,0,0,427.73,173.75Z"/><path class="cls-9" d="M375.89,180.21s-.28-.13-.14-.81,1.3-3.11,2.07-3.07-.76,2.74-.76,2.74S376.39,180.36,375.89,180.21Z"/><polygon class="cls-12" points="408.18 170.43 409.23 175.67 409.99 175.7 408.5 170.39 408.18 170.43"/><path class="cls-9" d="M436.41,180l4.1.42a.68.68,0,0,1,.52,1c-1.34,2.29-4.84,8.12-6,8.49-1.4.47-23.18,0-23.18,0s22.3-.62,22.82-.83,5.4-7.8,5.4-7.8Z"/><path class="cls-9" d="M455,179.14s6.83,1.7,9.42,4.19a22.8,22.8,0,0,0,3,.7,4.39,4.39,0,0,0-1.88-2.15c-1.59-1.07-7.75-2.6-7.75-2.6Z"/><circle class="cls-12" cx="392.24" cy="189.88" r="7.43"/><circle class="cls-9" cx="392.24" cy="189.88" r="5.72"/><circle class="cls-12" cx="451.85" cy="189.88" r="7.43"/><circle class="cls-9" cx="451.85" cy="189.88" r="5.72"/><path class="cls-13" d="M422.2,292.75v.16h-51a12.22,12.22,0,0,1-11.73-8.86h52.81a12.21,12.21,0,0,0,9.91,8.7Zm-62.72-9.91a12.4,12.4,0,0,1-.48-3.36v-2.75a12.21,12.21,0,0,1,12.21-12.21h51v.14a12.21,12.21,0,0,0-10.38,12.07v2.74a12.52,12.52,0,0,0,.47,3.37ZM399,273.67a3.36,3.36,0,1,0,3.36-3.36,3.36,3.36,0,0,0-3.36,3.36Zm-11.5,0a3.36,3.36,0,1,0,3.36-3.36,3.36,3.36,0,0,0-3.36,3.36Zm-11.5,0a3.36,3.36,0,1,0,3.36-3.36,3.36,3.36,0,0,0-3.36,3.36Zm-11.5,0a3.36,3.36,0,1,0,3.36-3.36,3.36,3.36,0,0,0-3.36,3.36Zm61.37,10.38H416a12.24,12.24,0,0,0,9.92,8.7,12.56,12.56,0,0,0,1.83.16h50.07v-8.86Zm0-19.39a12.55,12.55,0,0,1,1.83-.15h26.57a12.1,12.1,0,0,1,7.36,2.51c-8.71.38-15.3,2.11-15.3,4.2,0,2.36,8.41,4.29,18.77,4.29,2.71,0,5.29-.15,7.62-.38a27.47,27.47,0,0,0,5.06,2.38v5.31H416a12.61,12.61,0,0,1-.46-3.35v-2.75a12.21,12.21,0,0,1,10.38-12.06Zm6.12,9a3.36,3.36,0,1,0,3.36-3.36,3.36,3.36,0,0,0-3.36,3.36Zm-11.31,0a3.36,3.36,0,1,0,6.71,0,3.36,3.36,0,0,0-3.35-3.36,3.35,3.35,0,0,0-3.36,3.36Zm67.72,10.38H479v8.86a13,13,0,0,0,8.64-3.63,4.11,4.11,0,0,0,.77-5.23ZM481,278a11,11,0,0,1-2-.48v5.33h9.4A10,10,0,0,0,481,278Zm0,0"/><rect class="cls-5" x="90.5" y="333.56" width="419" height="141" rx="12" ry="12"/><circle class="cls-14" cx="300" cy="300" r="290"/></svg>